<?xml version="1.0" encoding="UTF-8" standalone="no"?><!DOCTYPE svg PUBLIC "-//W3C//DTD SVG 1.1//EN" "http://www.w3.org/Graphics/SVG/1.1/DTD/svg11.dtd"><svg width="100%" height="100%" viewBox="0 0 8780 6805" version="1.1" xmlns="http://www.w3.org/2000/svg" xmlns:xlink="http://www.w3.org/1999/xlink" xml:space="preserve" xmlns:serif="http://www.serif.com/" style="fill-rule:evenodd;clip-rule:evenodd;stroke-linejoin:round;stroke-miterlimit:2;"><rect id="Page-5" serif:id="Page 5" x="0.938" y="0" width="8775" height="6804.17" style="fill:none;"/><g id="Layer-1" serif:id="Layer 1"><rect x="0.938" y="0" width="8775" height="6804.17" style="fill:#fca12d;"/><path d="M7671.31,3808.89c-74.358,-319.862 -295.212,-706.092 -552.692,-930.304c-297.987,-259.229 -285.225,-557.138 -158.7,-894.246c280.78,-746.85 -1006.05,-1007.13 -1551.53,-794.408c-304.646,118.633 -752.454,321.412 -1076.52,108.708c-260.254,-170.908 -374.583,-84.667 -562.679,113.938c-164.804,172.991 -470,202.262 -722.5,169.333c-452.25,-59.058 -471.667,322.467 -193.108,528.387c264.696,195.996 -22.196,497.038 169.246,730.655c160.925,195.991 -33.296,351.216 -27.746,519.512c12.204,394.067 430.612,466.717 698.633,684.133c318.517,257.663 -98.221,530.488 5,817.917c130.958,364.808 627.05,488.671 978.863,587.45c609.845,171.95 1644.2,890.063 2159.17,239.896c197.546,-249.825 285.225,-550.867 431.721,-824.733c184.229,-344.417 488.338,-690.413 393.429,-1097.02c3.334,14.633 26.634,117.083 9.434,40.762c-33.309,-141.617 26.625,115.525 -0.013,0.021" style="fill:#f27d00;fill-rule:nonzero;"/><path d="M6956.03,3135.2c-106.542,-144.25 -251.929,-278.562 -278.558,-459.404c-27.75,-185.538 58.262,-363.238 71.579,-545.638c22.75,-310.97 -305.754,-566.545 -603.75,-655.916c-397.859,-119.679 -727.479,164.637 -1104.26,225.262c-420.625,67.942 -1852.85,19.863 -1822.35,672.642c17.205,360.621 389.546,585.883 223.075,961.667c-174.795,395.641 341.255,507.5 582.084,740.062c101,97.733 190.333,204.875 201.433,344.421c10.542,127 -18.867,274.387 125.417,346.512c157.037,78.396 389.546,24.584 541.037,-35c146.496,-57.5 367.35,-274.383 463.338,-212.716c110.979,71.079 86.008,328.216 -462.8,495.987c-231.396,70.554 -264.692,320.9 -62.15,384.142c182.571,57.504 347.375,-158.363 452.25,-229.963c342.379,-234.141 376.229,173.517 506.633,404.525c218.079,386.759 617.621,411.317 938.908,109.755c247.5,-232.055 566.009,-608.88 553.246,-951.209c-7.212,-196.512 -96.554,-355.416 -242.5,-487.083c-138.729,-125.417 -174.796,-248.779 -189.225,-359.583c-18.866,-144.25 140.946,-271.775 254.704,-124.913c81.017,105.05 -16.666,329.788 96,433.792c164.255,151.566 364.584,26.666 293.546,-213.238c-71.037,-239.904 -346.766,-585.916 -537.658,-844.104" style="fill:#c05500;fill-rule:nonzero;"/><path d="M6956.03,3135.2c-106.542,-144.25 -251.929,-278.562 -278.558,-459.404c-27.75,-185.538 58.262,-363.238 71.579,-545.638c22.75,-310.97 -305.754,-566.545 -603.75,-655.916c-397.859,-119.679 -727.479,164.637 -1104.26,225.262c-420.625,67.942 -1852.85,19.863 -1822.35,672.642c17.205,360.621 389.546,585.883 223.075,961.667c-174.795,395.641 341.255,507.5 582.084,740.062c101,97.733 190.333,204.875 201.433,344.421c10.542,127 -18.867,274.387 125.417,346.512c157.037,78.396 389.546,24.584 541.037,-35c146.496,-57.5 367.35,-274.383 463.338,-212.716c110.979,71.079 86.008,328.216 -462.8,495.987c-231.396,70.554 -264.692,320.9 -62.15,384.142c182.571,57.504 347.375,-158.363 452.25,-229.963c342.379,-234.141 376.229,173.517 506.633,404.525c218.079,386.759 617.621,411.317 938.908,109.755c247.5,-232.055 566.009,-608.88 553.246,-951.209c-7.212,-196.512 -96.554,-355.416 -242.5,-487.083c-138.729,-125.417 -174.796,-248.779 -189.225,-359.583c-18.866,-144.25 140.946,-271.775 254.704,-124.913c81.017,105.05 -16.666,329.788 96,433.792c164.255,151.566 364.584,26.666 293.546,-213.238c-71.037,-239.904 -346.766,-585.916 -537.658,-844.104" style="fill:#c05500;fill-rule:nonzero;"/><path d="M6709.71,3431.87c-124.858,-227.345 -449.479,-247.208 -639.804,-407.137c-234.167,-195.992 115.417,-575.417 101.55,-821.596c-38.3,-677.862 -1025.48,-474.029 -1467.74,-326.112c-461.666,154.166 -1355.65,508.008 -911.162,1064.1c201.433,251.912 364.017,399.82 408.408,720.725c46.613,335.537 294.104,600 637.592,726.995c368.467,136.409 448.921,-263.933 96,-408.708c-122.083,-49.65 -384.554,-140.067 -437.263,-260.8c-57.154,-130.137 102.655,-324.037 388.988,-132.75c135.417,90.417 217.525,234.667 323.517,348.079c88.225,94.584 215.854,142.159 306.304,235.713c263.029,270.729 7.216,641.279 245.833,881.175c92.121,92.5 236.396,133.796 316.854,231.533c82.684,100.346 63.817,188.15 199.217,248.254c213.083,94.075 411.183,-123.337 418.954,-333.446c5.004,-136.937 -107.65,-245.12 -131.512,-376.825c-26.08,-144.77 -0,-293.204 33.85,-434.837c66.037,-280.663 264.691,-673.163 110.416,-954.342c-25.525,-46.012 27.746,51.2 0,-0.021" style="fill:#7a3100;fill-rule:nonzero;"/></g></svg>