<?xml version="1.0" encoding="UTF-8" standalone="no"?><!DOCTYPE svg PUBLIC "-//W3C//DTD SVG 1.1//EN" "http://www.w3.org/Graphics/SVG/1.1/DTD/svg11.dtd"><svg width="100%" height="100%" viewBox="0 0 8780 6809" version="1.1" xmlns="http://www.w3.org/2000/svg" xmlns:xlink="http://www.w3.org/1999/xlink" xml:space="preserve" xmlns:serif="http://www.serif.com/" style="fill-rule:evenodd;clip-rule:evenodd;stroke-linejoin:round;stroke-miterlimit:2;"><rect id="Page-8" serif:id="Page 8" x="2.552" y="1.036" width="8775.21" height="6804.62" style="fill:none;"/><clipPath id="_clip1"><rect x="2.552" y="1.036" width="8775.21" height="6804.62"/></clipPath><g clip-path="url(#_clip1)"><g id="Layer-1" serif:id="Layer 1"><rect x="2.552" y="1.049" width="8775.21" height="6804.61" style="fill:#28aabb;"/><path d="M7673.14,3810.39c-74.359,-319.863 -295.213,-706.092 -552.692,-930.304c-297.987,-259.23 -285.225,-557.138 -158.704,-894.246c280.783,-746.85 -1006.05,-1007.13 -1551.53,-794.409c-304.646,118.634 -752.459,321.413 -1076.52,108.709c-260.254,-170.909 -374.583,-84.667 -562.679,113.937c-164.809,172.992 -470,202.263 -722.5,169.334c-452.25,-59.059 -471.671,322.466 -193.109,528.387c264.692,195.996 -22.195,497.038 169.246,730.654c160.925,195.992 -33.296,351.217 -27.746,519.513c12.205,394.066 430.613,466.716 698.634,684.133c318.516,257.663 -98.221,530.488 5,817.917c130.958,364.808 627.05,488.671 978.862,587.45c609.846,171.95 1644.2,890.062 2159.17,239.896c197.546,-249.825 285.225,-550.867 431.721,-824.734c184.229,-344.416 488.333,-690.412 393.429,-1097.02c3.333,14.634 26.633,117.084 9.433,40.763c-33.308,-141.617 26.621,115.525 -0.012,0.021" style="fill:#00879c;fill-rule:nonzero;"/><path d="M6957.86,3136.7c-106.541,-144.25 -251.929,-278.563 -278.562,-459.404c-27.746,-185.538 58.267,-363.238 71.583,-545.638c22.75,-310.971 -305.754,-566.546 -603.75,-655.917c-397.858,-119.679 -727.479,164.638 -1104.26,225.263c-420.625,67.942 -1852.85,19.862 -1822.35,672.642c17.204,360.62 389.546,585.883 223.075,961.666c-174.796,395.642 341.25,507.5 582.083,740.063c100.996,97.733 190.334,204.875 201.434,344.421c10.541,127 -18.867,274.387 125.416,346.512c157.038,78.396 389.546,24.583 541.038,-35c146.496,-57.5 367.35,-274.383 463.333,-212.717c110.983,71.08 86.013,328.217 -462.796,495.988c-231.396,70.554 -264.691,320.9 -62.15,384.142c182.567,57.504 347.375,-158.363 452.25,-229.963c342.379,-234.142 376.229,173.517 506.634,404.525c218.079,386.758 617.616,411.317 938.908,109.754c247.5,-232.054 566.008,-608.879 553.246,-951.208c-7.213,-196.513 -96.554,-355.417 -242.5,-487.083c-138.729,-125.417 -174.796,-248.78 -189.225,-359.584c-18.867,-144.25 140.946,-271.775 254.704,-124.912c81.017,105.05 -16.667,329.787 96,433.791c164.254,151.567 364.583,26.667 293.546,-213.237c-71.038,-239.904 -346.767,-585.917 -537.659,-844.104" style="fill:#006575;fill-rule:nonzero;"/><path d="M6957.86,3136.7c-106.541,-144.25 -251.929,-278.563 -278.562,-459.404c-27.746,-185.538 58.267,-363.238 71.583,-545.638c22.75,-310.971 -305.754,-566.546 -603.75,-655.917c-397.858,-119.679 -727.479,164.638 -1104.26,225.263c-420.625,67.942 -1852.85,19.862 -1822.35,672.642c17.204,360.62 389.546,585.883 223.075,961.666c-174.796,395.642 341.25,507.5 582.083,740.063c100.996,97.733 190.334,204.875 201.434,344.421c10.541,127 -18.867,274.387 125.416,346.512c157.038,78.396 389.546,24.583 541.038,-35c146.496,-57.5 367.35,-274.383 463.333,-212.717c110.983,71.08 86.013,328.217 -462.796,495.988c-231.396,70.554 -264.691,320.9 -62.15,384.142c182.567,57.504 347.375,-158.363 452.25,-229.963c342.379,-234.142 376.229,173.517 506.634,404.525c218.079,386.758 617.616,411.317 938.908,109.754c247.5,-232.054 566.008,-608.879 553.246,-951.208c-7.213,-196.513 -96.554,-355.417 -242.5,-487.083c-138.729,-125.417 -174.796,-248.78 -189.225,-359.584c-18.867,-144.25 140.946,-271.775 254.704,-124.912c81.017,105.05 -16.667,329.787 96,433.791c164.254,151.567 364.583,26.667 293.546,-213.237c-71.038,-239.904 -346.767,-585.917 -537.659,-844.104" style="fill:#006575;fill-rule:nonzero;"/><path d="M6711.54,3433.36c-124.858,-227.346 -449.479,-247.208 -639.804,-407.137c-234.167,-195.992 115.416,-575.417 101.55,-821.596c-38.3,-677.863 -1025.48,-474.029 -1467.75,-326.113c-461.667,154.167 -1355.65,508.009 -911.163,1064.1c201.434,251.913 364.021,399.821 408.413,720.725c46.612,335.538 294.104,600 637.592,726.996c368.462,136.408 448.92,-263.933 96,-408.708c-122.084,-49.65 -384.555,-140.067 -437.267,-260.8c-57.154,-130.138 102.658,-324.038 388.992,-132.75c135.416,90.416 217.525,234.666 323.512,348.079c88.229,94.583 215.858,142.158 306.308,235.712c263.03,270.73 7.213,641.28 245.834,881.175c92.116,92.5 236.391,133.796 316.854,231.534c82.683,100.346 63.812,188.15 199.212,248.254c213.088,94.075 411.188,-123.338 418.959,-333.446c5,-136.937 -107.654,-245.121 -131.513,-376.825c-26.079,-144.771 0,-293.204 33.85,-434.837c66.034,-280.663 264.692,-673.163 110.417,-954.342c-25.525,-46.013 27.746,51.2 -0,-0.021" style="fill:#004854;fill-rule:nonzero;"/></g></g></svg>