<?xml version="1.0" encoding="UTF-8" standalone="no"?><!DOCTYPE svg PUBLIC "-//W3C//DTD SVG 1.1//EN" "http://www.w3.org/Graphics/SVG/1.1/DTD/svg11.dtd"><svg width="100%" height="100%" viewBox="0 0 8780 6809" version="1.1" xmlns="http://www.w3.org/2000/svg" xmlns:xlink="http://www.w3.org/1999/xlink" xml:space="preserve" xmlns:serif="http://www.serif.com/" style="fill-rule:evenodd;clip-rule:evenodd;stroke-linejoin:round;stroke-miterlimit:2;"><rect id="Page-6" serif:id="Page 6" x="0" y="1.036" width="8775.21" height="6804.62" style="fill:none;"/><clipPath id="_clip1"><rect x="0" y="1.036" width="8775.21" height="6804.62"/></clipPath><g clip-path="url(#_clip1)"><g id="Layer-1" serif:id="Layer 1"><rect x="0" y="1.049" width="8775.21" height="6804.61" style="fill:#6ab489;"/><path d="M6145.75,3321.41c-95.342,-441.109 -453.65,-651.734 -725.042,-933.446c-116.629,-121.25 -245.67,-384.142 -98.004,-648.075c50.996,-91.463 306.425,-101.392 215.517,156.792c-93.567,265 19.512,490.762 127.712,505.916c187.138,26.134 232.367,-187.629 195.563,-443.721c-73.613,-512.712 -312.188,-813.229 -600.417,-1019.17c-411.537,-293.7 -795.121,-409.204 -1244.34,-199.625c-276.713,129.091 -468.284,286.929 -764.067,336.583c-133.921,22.475 -346.779,-75.258 -453.208,-161.496c-216.85,-175.608 -384.029,141.638 -631.917,197.559c-392.012,87.804 -745,-267.592 -815.95,283.27c-64.3,500.688 451.433,720.713 405.758,1198.42c-44.791,467.242 -187.137,770.896 62.971,1211.46c94.9,167.766 290,300.52 333.917,500.17c49.221,223.692 12.858,469.334 -133.479,587.971c-121.504,98.275 -335.25,78.942 -479.813,315.192c-97.558,159.404 40.796,511.146 358.309,332.917c195.116,-109.755 139.687,-277 318.841,-408.184c164.521,-120.729 464.738,70.034 630.146,130.138c806.638,294.771 1561.39,1298.75 2456.72,739.537c463.408,-289.546 27.5,-1029.08 230.15,-1461.3c200.883,-429.096 736.571,-640.242 610.633,-1220.9c-59.425,-274.396 23.054,105.042 -0.004,-0.012" style="fill:#6ab489;fill-rule:nonzero;"/><path d="M7670.58,3810.39c-74.358,-319.863 -295.213,-706.092 -552.692,-930.304c-297.987,-259.23 -285.225,-557.138 -158.704,-894.246c280.783,-746.85 -1006.05,-1007.13 -1551.53,-794.409c-304.646,118.634 -752.458,321.413 -1076.52,108.709c-260.254,-170.909 -374.583,-84.667 -562.679,113.937c-164.804,172.992 -470,202.263 -722.5,169.334c-452.25,-59.059 -471.671,322.466 -193.108,528.387c264.695,195.996 -22.196,497.038 169.245,730.654c160.925,195.992 -33.295,351.217 -27.745,519.513c12.204,394.066 430.612,466.716 698.633,684.133c318.517,257.663 -98.221,530.488 5,817.917c130.958,364.808 627.05,488.671 978.862,587.45c609.846,171.95 1644.2,890.062 2159.17,239.896c197.546,-249.825 285.225,-550.867 431.721,-824.734c184.229,-344.416 488.333,-690.412 393.429,-1097.02c3.333,14.634 26.633,117.084 9.433,40.763c-33.308,-141.617 26.621,115.525 -0.012,0.021" style="fill:#4c9a70;fill-rule:nonzero;"/><path d="M6955.3,3136.7c-106.542,-144.25 -251.929,-278.563 -278.559,-459.404c-27.75,-185.538 58.263,-363.238 71.58,-545.638c22.75,-310.971 -305.755,-566.546 -603.75,-655.917c-397.859,-119.679 -727.48,164.638 -1104.26,225.263c-420.625,67.942 -1852.85,19.862 -1822.35,672.642c17.204,360.62 389.546,585.883 223.075,961.666c-174.796,395.642 341.25,507.5 582.084,740.063c100.995,97.733 190.333,204.875 201.433,344.421c10.542,127 -18.867,274.387 125.417,346.512c157.037,78.396 389.545,24.583 541.037,-35c146.496,-57.5 367.35,-274.383 463.333,-212.717c110.984,71.08 86.013,328.217 -462.795,495.988c-231.396,70.554 -264.692,320.9 -62.15,384.142c182.566,57.504 347.375,-158.363 452.25,-229.963c342.379,-234.142 376.229,173.517 506.633,404.525c218.079,386.758 617.617,411.317 938.908,109.754c247.5,-232.054 566.009,-608.879 553.246,-951.208c-7.212,-196.513 -96.554,-355.417 -242.5,-487.083c-138.729,-125.417 -174.796,-248.78 -189.225,-359.584c-18.867,-144.25 140.946,-271.775 254.704,-124.912c81.017,105.05 -16.666,329.787 96,433.791c164.254,151.567 364.584,26.667 293.546,-213.237c-71.037,-239.904 -346.767,-585.917 -537.658,-844.104" style="fill:#2d7760;fill-rule:nonzero;"/><path d="M6955.3,3136.7c-106.542,-144.25 -251.929,-278.563 -278.559,-459.404c-27.75,-185.538 58.263,-363.238 71.58,-545.638c22.75,-310.971 -305.755,-566.546 -603.75,-655.917c-397.859,-119.679 -727.48,164.638 -1104.26,225.263c-420.625,67.942 -1852.85,19.862 -1822.35,672.642c17.204,360.62 389.546,585.883 223.075,961.666c-174.796,395.642 341.25,507.5 582.084,740.063c100.995,97.733 190.333,204.875 201.433,344.421c10.542,127 -18.867,274.387 125.417,346.512c157.037,78.396 389.545,24.583 541.037,-35c146.496,-57.5 367.35,-274.383 463.333,-212.717c110.984,71.08 86.013,328.217 -462.795,495.988c-231.396,70.554 -264.692,320.9 -62.15,384.142c182.566,57.504 347.375,-158.363 452.25,-229.963c342.379,-234.142 376.229,173.517 506.633,404.525c218.079,386.758 617.617,411.317 938.908,109.754c247.5,-232.054 566.009,-608.879 553.246,-951.208c-7.212,-196.513 -96.554,-355.417 -242.5,-487.083c-138.729,-125.417 -174.796,-248.78 -189.225,-359.584c-18.867,-144.25 140.946,-271.775 254.704,-124.912c81.017,105.05 -16.666,329.787 96,433.791c164.254,151.567 364.584,26.667 293.546,-213.237c-71.037,-239.904 -346.767,-585.917 -537.658,-844.104" style="fill:#2d7760;fill-rule:nonzero;"/><path d="M6708.98,3433.36c-124.859,-227.346 -449.48,-247.208 -639.805,-407.137c-234.166,-195.992 115.417,-575.417 101.55,-821.596c-38.3,-677.863 -1025.48,-474.029 -1467.74,-326.113c-461.671,154.167 -1355.65,508.009 -911.167,1064.1c201.437,251.913 364.021,399.821 408.412,720.725c46.613,335.538 294.105,600 637.592,726.996c368.467,136.408 448.921,-263.933 96,-408.708c-122.083,-49.65 -384.554,-140.067 -437.262,-260.8c-57.159,-130.138 102.654,-324.038 388.987,-132.75c135.417,90.416 217.525,234.666 323.517,348.079c88.225,94.583 215.854,142.158 306.304,235.712c263.029,270.73 7.217,641.28 245.833,881.175c92.121,92.5 236.396,133.796 316.855,231.534c82.683,100.346 63.816,188.15 199.216,248.254c213.084,94.075 411.184,-123.338 418.954,-333.446c5.005,-136.937 -107.65,-245.121 -131.512,-376.825c-26.079,-144.771 -0,-293.204 33.85,-434.837c66.037,-280.663 264.691,-673.163 110.417,-954.342c-25.525,-46.013 27.745,51.2 -0.001,-0.021" style="fill:#0d463d;fill-rule:nonzero;"/></g></g></svg>