<?xml version="1.0" encoding="UTF-8" standalone="no"?><!DOCTYPE svg PUBLIC "-//W3C//DTD SVG 1.1//EN" "http://www.w3.org/Graphics/SVG/1.1/DTD/svg11.dtd"><svg width="100%" height="100%" viewBox="0 0 5696 5900" version="1.1" xmlns="http://www.w3.org/2000/svg" xmlns:xlink="http://www.w3.org/1999/xlink" xml:space="preserve" xmlns:serif="http://www.serif.com/" style="fill-rule:evenodd;clip-rule:evenodd;stroke-linejoin:round;stroke-miterlimit:2;"><rect id="Page-2" serif:id="Page 2" x="1.276" y="0" width="5691.67" height="5900" style="fill:none;"/><clipPath id="_clip1"><rect x="1.276" y="0" width="5691.67" height="5900"/></clipPath><g clip-path="url(#_clip1)"><g id="Layer-1" serif:id="Layer 1"><rect x="1.276" y="0" width="5691.67" height="5900" style="fill:#ec7973;"/><path d="M5717.94,5900l1.354,-5640.88c-311.725,-61.5 -629.842,-37.379 -974.621,99.321c-399.929,158.57 -676.642,351.562 -1104.39,412.466c-193.566,27.555 -500.9,-92.204 -655.145,-198.087c-313.359,-215.125 -554.709,173.696 -913.413,242.033c-566.517,107.9 -1076.65,-328.446 -1179.07,347.634c-93.041,614.208 652.709,883.833 586.638,1469.64c-64.7,573.167 -270.229,945.333 90.992,1485.85c137.404,205.684 419.366,368.45 482.616,613.467c70.871,274.538 18.671,575.696 -192.725,720.7c-175.883,120.458 -484.446,96.583 -693.712,386.513c-141.204,195.712 59.062,626.704 517.829,408.162c282.187,-134.437 202.171,-339.9 460.587,-500.583c237.767,-147.829 671.759,85.583 910.442,159.575l2662.62,-5.817Z" style="fill:#ce5454;fill-rule:nonzero;"/><path d="M5719.13,5900l-0,-4877.26c-389.846,-224.204 -994.817,-264.758 -1332.98,-124.866c-325.8,134.833 -804.667,364.95 -1151,123.375c-278.267,-194.092 -400.437,-96.325 -601.462,129.325c-176.125,196.116 -502.421,229.366 -772.221,191.917c-483.663,-67.101 -504.254,365.879 -206.596,599.612c283.129,222.238 -23.846,564.238 181.062,829.354c171.971,222.517 -35.475,398.504 -29.912,589.838c13.129,447.446 460.179,529.966 746.696,776.225c340.404,292.716 -104.884,602.296 5.429,928.121c140.083,414.191 670.154,554.458 1046.18,666.991c128.838,38.542 275.429,101.313 431.971,171.534l1682.82,-4.163Z" style="fill:#883d47;fill-rule:nonzero;"/><path d="M5719.03,1368.37c-71.925,-30.871 -497.808,-144.659 -913.592,-101.705c-334.087,34.513 -579.166,262.5 -783.333,295.834c-570.058,93.071 -1672.33,-560.242 -1795.83,370.833c-68.229,514.142 668.466,639.521 375,1145.83c-379.167,654.167 346.316,722.171 608.333,1108.33c110.242,162.504 69.963,399.762 50,600c-18.225,182.387 59.133,467.621 233.333,604.167c189.325,148.345 416.667,233.333 637.5,220.833c214.33,-12.129 412.192,-81.138 525,29.166c69.867,68.346 58.388,161.034 -3.566,260.671l1066.07,0l0,-4535.67" style="fill:#28aabb;fill-rule:nonzero;"/><clipPath id="_clip2"><path d="M4805.44,1266.67c-334.092,34.512 -579.167,262.5 -783.334,295.833c-182.554,29.804 -419.683,-16.933 -661.766,-63.667c-513.884,-99.204 -1050.12,-198.412 -1134.07,434.5c-68.229,514.142 668.467,639.525 375,1145.83c-379.167,654.166 346.317,722.17 608.333,1108.33c110.242,162.504 69.963,399.762 50,600c-18.225,182.387 59.13,467.625 233.334,604.167c189.321,148.35 416.666,233.333 637.5,220.833c214.325,-12.129 412.191,-81.137 525,29.167c69.321,67.812 58.566,159.583 -2.125,258.333l1039.62,0l-0,-4541.25c-98.596,-32.879 -382.996,-101.65 -694.167,-101.654c-63.779,-0 -128.671,2.887 -193.333,9.571Z" clip-rule="nonzero"/></clipPath><g clip-path="url(#_clip2)"><path d="M5196.78,1343.38c-577.6,-3.3 -2474.38,-411.542 -2597.88,519.533c-68.225,514.142 371.33,921.283 55.038,1413.65c-332.783,518.2 327.312,799.058 589.333,1185.22c110.246,162.504 201.759,334.871 181.796,535.108c-18.225,182.388 -94.283,383.788 79.917,520.334c189.325,148.345 512.825,127.075 729.791,78.954c209.588,-46.438 558.525,-301.229 671.334,-190.925c129.654,126.833 31.775,484.491 -741.704,591.712c-326.117,45.159 -433.534,391.117 -179.421,529.229c229.133,124.546 503.046,-141.487 660.521,-217.812c515.65,-249.992 457.866,334.883 573.129,692.871c192.833,598.954 719.316,728.366 1223.39,377.796" style="fill:#28aabb;fill-rule:nonzero;"/></g><path d="M5719.31,5904.17l-0,-4067.21c-405.633,-213.629 -1113.55,-42.862 -1493.68,92.117c-565.5,200.867 -1661.43,660.792 -1116.62,1384.42c246.775,327.812 445.842,520.246 500.496,938c57.091,436.371 360.216,780.596 781.237,946.2c451.734,177.592 550.304,-343.517 117.321,-531.683c-149.508,-64.93 -471.308,-182.563 -536.075,-339.175c-70.021,-169.305 125.808,-421.542 476.563,-172.78c165.591,117.392 266.658,305.325 396.191,452.55c108.346,123.159 264.642,185.242 375.492,306.425c272.617,298.13 90.167,688.88 204.592,991.138l294.483,-0.004Z" style="fill:#00879c;fill-rule:nonzero;"/></g></g></svg>