<?xml version="1.0" encoding="UTF-8" standalone="no"?><!DOCTYPE svg PUBLIC "-//W3C//DTD SVG 1.1//EN" "http://www.w3.org/Graphics/SVG/1.1/DTD/svg11.dtd"><svg width="100%" height="100%" viewBox="0 0 6188 5442" version="1.1" xmlns="http://www.w3.org/2000/svg" xmlns:xlink="http://www.w3.org/1999/xlink" xml:space="preserve" xmlns:serif="http://www.serif.com/" style="fill-rule:evenodd;clip-rule:evenodd;stroke-linejoin:round;stroke-miterlimit:2;"><rect id="Page-10" serif:id="Page 10" x="0.938" y="1.036" width="6183.54" height="5437.96" style="fill:none;"/><clipPath id="_clip1"><rect x="0.938" y="1.036" width="6183.54" height="5437.96"/></clipPath><g clip-path="url(#_clip1)"><g id="Layer-1" serif:id="Layer 1"><rect x="0.938" y="1.049" width="6183.55" height="5437.95" style="fill:#6ab489;"/><path d="M6146.69,3321.41c-95.342,-441.109 -453.65,-651.734 -725.042,-933.446c-116.629,-121.25 -245.671,-384.142 -98.004,-648.075c50.995,-91.463 306.425,-101.392 215.516,156.792c-93.566,265 19.513,490.762 127.713,505.916c187.137,26.134 232.367,-187.629 195.562,-443.721c-73.612,-512.712 -312.187,-813.229 -600.416,-1019.17c-411.538,-293.7 -795.121,-409.204 -1244.34,-199.625c-276.712,129.091 -468.283,286.929 -764.066,336.583c-133.921,22.475 -346.78,-75.258 -453.209,-161.496c-216.85,-175.608 -384.029,141.638 -631.916,197.559c-392.013,87.804 -745,-267.592 -815.95,283.27c-64.301,500.688 451.433,720.713 405.758,1198.42c-44.792,467.242 -187.138,770.896 62.971,1211.46c94.9,167.766 290,300.52 333.916,500.17c49.221,223.692 12.859,469.334 -133.479,587.971c-121.504,98.275 -335.25,78.942 -479.812,315.192c-97.559,159.404 40.796,511.146 358.308,332.917c195.117,-109.755 139.688,-277 318.842,-408.184c164.521,-120.729 464.737,70.034 630.146,130.138c806.637,294.771 1561.39,1298.75 2456.72,739.537c463.409,-289.546 27.5,-1029.08 230.15,-1461.31c200.884,-429.092 736.571,-640.238 610.634,-1220.89c-59.425,-274.396 23.054,105.042 -0.004,-0.012" style="fill:#6ab489;fill-rule:nonzero;"/><path d="M7671.52,3810.39c-74.358,-319.859 -295.212,-706.088 -552.691,-930.304c-297.988,-259.23 -285.225,-557.138 -158.704,-894.242c280.783,-746.854 -1006.05,-1007.13 -1551.53,-794.413c-304.645,118.638 -752.458,321.417 -1076.52,108.709c-260.255,-170.904 -374.584,-84.667 -562.68,113.937c-164.804,172.996 -470,202.263 -722.5,169.338c-452.25,-59.063 -471.67,322.466 -193.108,528.387c264.696,195.992 -22.196,497.034 169.246,730.654c160.925,195.992 -33.296,351.217 -27.746,519.509c12.204,394.071 430.613,466.716 698.633,684.137c318.517,257.663 -98.22,530.484 5,817.917c130.959,364.804 627.05,488.671 978.863,587.45c609.846,171.95 1644.2,890.058 2159.17,239.892c197.545,-249.825 285.225,-550.867 431.72,-824.73c184.23,-344.42 488.334,-690.416 393.43,-1097.03c3.333,14.634 26.633,117.084 9.433,40.767c-33.308,-141.621 26.621,115.521 -0.013,0.017" style="fill:#4c9a70;fill-rule:nonzero;"/><path d="M6956.24,3136.7c-106.541,-144.25 -251.929,-278.567 -278.558,-459.404c-27.75,-185.538 58.262,-363.238 71.579,-545.638c22.75,-310.971 -305.754,-566.546 -603.75,-655.917c-397.858,-119.679 -727.479,164.638 -1104.26,225.263c-420.625,67.942 -1852.85,19.862 -1822.35,672.642c17.204,360.62 389.546,585.879 223.075,961.666c-174.796,395.642 341.25,507.5 582.083,740.063c100.996,97.733 190.333,204.875 201.433,344.421c10.542,127 -18.866,274.387 125.417,346.512c157.038,78.396 389.546,24.583 541.038,-35c146.495,-57.5 367.35,-274.387 463.333,-212.717c110.983,71.08 86.012,328.217 -462.796,495.988c-231.396,70.554 -264.692,320.9 -62.15,384.142c182.567,57.5 347.375,-158.363 452.25,-229.963c342.379,-234.142 376.229,173.517 506.633,404.525c218.08,386.754 617.617,411.317 938.909,109.754c247.5,-232.054 566.008,-608.879 553.246,-951.208c-7.213,-196.513 -96.555,-355.417 -242.5,-487.083c-138.73,-125.417 -174.796,-248.78 -189.225,-359.584c-18.867,-144.25 140.945,-271.775 254.704,-124.912c81.016,105.05 -16.667,329.787 96,433.791c164.254,151.567 364.583,26.667 293.546,-213.237c-71.038,-239.904 -346.767,-585.917 -537.659,-844.104" style="fill:#2d7760;fill-rule:nonzero;"/><path d="M6956.24,3136.7c-106.541,-144.25 -251.929,-278.567 -278.558,-459.404c-27.75,-185.538 58.262,-363.238 71.579,-545.638c22.75,-310.971 -305.754,-566.546 -603.75,-655.917c-397.858,-119.679 -727.479,164.638 -1104.26,225.263c-420.625,67.942 -1852.85,19.862 -1822.35,672.642c17.204,360.62 389.546,585.879 223.075,961.666c-174.796,395.642 341.25,507.5 582.083,740.063c100.996,97.733 190.333,204.875 201.433,344.421c10.542,127 -18.866,274.387 125.417,346.512c157.038,78.396 389.546,24.583 541.038,-35c146.495,-57.5 367.35,-274.387 463.333,-212.717c110.983,71.08 86.012,328.217 -462.796,495.988c-231.396,70.554 -264.692,320.9 -62.15,384.142c182.567,57.5 347.375,-158.363 452.25,-229.963c342.379,-234.142 376.229,173.517 506.633,404.525c218.08,386.754 617.617,411.317 938.909,109.754c247.5,-232.054 566.008,-608.879 553.246,-951.208c-7.213,-196.513 -96.555,-355.417 -242.5,-487.083c-138.73,-125.417 -174.796,-248.78 -189.225,-359.584c-18.867,-144.25 140.945,-271.775 254.704,-124.912c81.016,105.05 -16.667,329.787 96,433.791c164.254,151.567 364.583,26.667 293.546,-213.237c-71.038,-239.904 -346.767,-585.917 -537.659,-844.104" style="fill:#2d7760;fill-rule:nonzero;"/><path d="M6709.92,3433.36c-124.858,-227.346 -449.479,-247.208 -639.804,-407.137c-234.167,-195.992 115.417,-575.417 101.55,-821.592c-38.3,-677.867 -1025.48,-474.033 -1467.74,-326.117c-461.671,154.167 -1355.65,508.009 -911.166,1064.1c201.437,251.913 364.02,399.821 408.412,720.725c46.613,335.538 294.104,600 637.592,726.996c368.466,136.408 448.921,-263.933 96,-408.708c-122.084,-49.65 -384.554,-140.067 -437.263,-260.8c-57.158,-130.138 102.654,-324.038 388.988,-132.75c135.416,90.416 217.525,234.666 323.516,348.079c88.225,94.583 215.855,142.158 306.305,235.712c263.029,270.73 7.216,641.284 245.833,881.175c92.121,92.5 236.396,133.796 316.854,231.534c82.683,100.346 63.817,188.15 199.217,248.254c213.083,94.075 411.183,-123.333 418.954,-333.446c5.004,-136.933 -107.65,-245.121 -131.513,-376.825c-26.079,-144.771 0,-293.204 33.85,-434.837c66.038,-280.659 264.692,-673.163 110.417,-954.342c-25.525,-46.013 27.746,51.2 0,-0.021" style="fill:#0d463d;fill-rule:nonzero;"/></g></g></svg>