<?xml version="1.0" encoding="UTF-8" standalone="no"?><!DOCTYPE svg PUBLIC "-//W3C//DTD SVG 1.1//EN" "http://www.w3.org/Graphics/SVG/1.1/DTD/svg11.dtd"><svg width="100%" height="100%" viewBox="0 0 6196 5455" version="1.1" xmlns="http://www.w3.org/2000/svg" xmlns:xlink="http://www.w3.org/1999/xlink" xml:space="preserve" xmlns:serif="http://www.serif.com/" style="fill-rule:evenodd;clip-rule:evenodd;stroke-linejoin:round;stroke-miterlimit:2;"><rect id="Page-11" serif:id="Page 11" x="0" y="2.073" width="6191.88" height="5450.46" style="fill:none;"/><clipPath id="_clip1"><rect x="0" y="2.073" width="6191.88" height="5450.46"/></clipPath><g clip-path="url(#_clip1)"><g id="Layer-1" serif:id="Layer 1"><rect x="0" y="2.085" width="6191.88" height="5450.45" style="fill:#ec7973;"/><path d="M7716.42,3811.42c-74.358,-319.858 -295.213,-706.087 -552.692,-930.304c-297.987,-259.229 -285.225,-557.137 -158.7,-894.242c280.779,-746.854 -1006.05,-1007.13 -1551.53,-794.412c-304.646,118.637 -752.454,321.417 -1076.52,108.708c-260.254,-170.904 -374.583,-84.667 -562.679,113.938c-164.804,172.996 -470,202.262 -722.5,169.337c-452.25,-59.062 -471.667,322.467 -193.109,528.388c264.696,195.991 -22.195,497.033 169.246,730.654c160.925,195.992 -33.295,351.217 -27.745,519.508c12.204,394.071 430.612,466.717 698.633,684.138c318.516,257.662 -98.217,530.483 5,817.916c130.958,364.805 627.05,488.671 978.862,587.45c609.846,171.95 1644.2,890.059 2159.17,239.892c197.546,-249.825 285.225,-550.867 431.721,-824.729c184.229,-344.421 488.337,-690.417 393.429,-1097.03c3.333,14.633 26.633,117.083 9.433,40.767c-33.308,-141.621 26.625,115.52 -0.012,0.016" style="fill:#ce5454;fill-rule:nonzero;"/><path d="M6955.3,3137.74c-106.537,-144.25 -251.929,-278.566 -278.558,-459.404c-27.75,-185.537 58.262,-363.237 71.579,-545.637c22.75,-310.971 -305.754,-566.546 -603.75,-655.917c-397.858,-119.679 -727.479,164.637 -1104.26,225.262c-420.625,67.942 -1852.85,19.863 -1822.35,672.642c17.204,360.621 389.546,585.879 223.075,961.667c-174.796,395.641 341.254,507.5 582.083,740.062c101,97.734 190.333,204.875 201.434,344.421c10.541,127 -18.867,274.388 125.416,346.513c157.038,78.395 389.546,24.583 541.038,-35c146.495,-57.5 367.35,-274.388 463.337,-212.717c110.979,71.079 86.008,328.217 -462.8,495.987c-231.396,70.555 -264.691,320.9 -62.15,384.142c182.571,57.5 347.375,-158.362 452.25,-229.962c342.379,-234.142 376.229,173.516 506.633,404.525c218.08,386.754 617.621,411.316 938.909,109.754c247.5,-232.054 566.008,-608.879 553.246,-951.209c-7.213,-196.512 -96.555,-355.416 -242.5,-487.083c-138.73,-125.417 -174.796,-248.779 -189.225,-359.583c-18.867,-144.25 140.946,-271.775 254.704,-124.913c81.017,105.05 -16.667,329.788 96,433.792c164.254,151.567 364.583,26.667 293.546,-213.238c-71.038,-239.904 -346.767,-585.916 -537.659,-844.104" style="fill:#883d47;fill-rule:nonzero;"/><path d="M6955.3,3137.74c-106.537,-144.25 -251.929,-278.566 -278.558,-459.404c-27.75,-185.537 58.262,-363.237 71.579,-545.637c22.75,-310.971 -305.754,-566.546 -603.75,-655.917c-397.858,-119.679 -727.479,164.637 -1104.26,225.262c-420.625,67.942 -1852.85,19.863 -1822.35,672.642c17.204,360.621 389.546,585.879 223.075,961.667c-174.796,395.641 341.254,507.5 582.083,740.062c101,97.734 190.333,204.875 201.434,344.421c10.541,127 -18.867,274.388 125.416,346.513c157.038,78.395 389.546,24.583 541.038,-35c146.495,-57.5 367.35,-274.388 463.337,-212.717c110.979,71.079 86.008,328.217 -462.8,495.987c-231.396,70.555 -264.691,320.9 -62.15,384.142c182.571,57.5 347.375,-158.362 452.25,-229.962c342.379,-234.142 376.229,173.516 506.633,404.525c218.08,386.754 617.621,411.316 938.909,109.754c247.5,-232.054 566.008,-608.879 553.246,-951.209c-7.213,-196.512 -96.555,-355.416 -242.5,-487.083c-138.73,-125.417 -174.796,-248.779 -189.225,-359.583c-18.867,-144.25 140.946,-271.775 254.704,-124.913c81.017,105.05 -16.667,329.788 96,433.792c164.254,151.567 364.583,26.667 293.546,-213.238c-71.038,-239.904 -346.767,-585.916 -537.659,-844.104" style="fill:#883d47;fill-rule:nonzero;"/><path d="M6708.98,3434.4c-124.859,-227.346 -449.479,-247.209 -639.804,-407.138c-234.167,-195.992 115.416,-575.417 101.55,-821.592c-38.3,-677.866 -1025.48,-474.033 -1467.74,-326.116c-461.667,154.166 -1355.65,508.008 -911.163,1064.1c201.434,251.912 364.017,399.821 408.409,720.725c46.612,335.537 294.104,600 637.596,726.996c368.462,136.408 448.916,-263.934 95.995,-408.709c-122.083,-49.65 -384.554,-140.066 -437.262,-260.8c-57.154,-130.137 102.654,-324.037 388.987,-132.75c135.417,90.417 217.525,234.667 323.517,348.079c88.225,94.584 215.854,142.159 306.304,235.713c263.029,270.729 7.217,641.283 245.834,881.175c92.12,92.5 236.395,133.796 316.854,231.533c82.687,100.346 63.816,188.15 199.216,248.254c213.084,94.075 411.184,-123.333 418.955,-333.445c5.004,-136.934 -107.65,-245.121 -131.513,-376.825c-26.079,-144.771 0,-293.205 33.85,-434.838c66.038,-280.658 264.692,-673.162 110.417,-954.342c-25.525,-46.012 27.745,51.2 -0,-0.02" style="fill:#5a273b;fill-rule:nonzero;"/></g></g></svg>